<!--
Copyright 2020 TATA ELXSI

Licensed under the Apache License, Version 2.0 (the "License");
you may not use this file except in compliance with the License.
You may obtain a copy of the License at

    http://www.apache.org/licenses/LICENSE-2.0

Unless required by applicable law or agreed to in writing, software
distributed under the License is distributed on an "AS IS" BASIS,
WITHOUT WARRANTIES OR CONDITIONS OF ANY KIND, either express or implied.
See the License for the specific language governing permissions and
limitations under the License.

Author: KUMARAN M (kumaran.m@tataelxsi.co.in), RAJESH S (rajesh.s@tataelxsi.co.in), BARATH KUMAR R (barath.r@tataelxsi.co.in)
-->
<!DOCTYPE svg PUBLIC "-//W3C//DTD SVG 1.1//EN" "http://www.w3.org/Graphics/SVG/1.1/DTD/svg11.dtd">

<svg version="1.1" id="IconsRepoEditor" xmlns="http://www.w3.org/2000/svg" xmlns:xlink="http://www.w3.org/1999/xlink" x="0px" y="0px" viewBox="-153.6 -153.6 819.20 819.20" style="enable-background:new 0 0 512 512;" xml:space="preserve" width="64px" height="64px" fill="#ffffff" stroke="#ffffff" stroke-width="0">

<g id="IconsRepo_bgCarrier">

<rect x="-153.6" y="-153.6" width="819.20" height="819.20" rx="409.6" fill="#f8a800" stroke-width="0"/>

</g> <path d="M362.665,170.667V192c0,11.776,9.557,21.333,21.333,21.333s21.333-9.557,21.333-21.333v-21.333 c0-11.776-9.557-21.333-21.333-21.333S362.665,158.891,362.665,170.667z"/> <path d="M341.331,128h21.333c11.776,0,21.333-9.557,21.333-21.333s-9.557-21.333-21.333-21.333h-21.333 c-11.776,0-21.333,9.557-21.333,21.333S329.555,128,341.331,128z"/> <path d="M149.331,341.333V320c0-11.776-9.557-21.333-21.333-21.333s-21.333,9.557-21.333,21.333v21.333 c0,11.776,9.557,21.333,21.333,21.333S149.331,353.109,149.331,341.333z"/> <path d="M170.665,384h-21.333c-11.776,0-21.333,9.557-21.333,21.333s9.557,21.333,21.333,21.333h21.333 c11.776,0,21.333-9.557,21.333-21.333S182.441,384,170.665,384z"/> <path d="M469.397,298.667h-64.066v-21.333c0-11.776-9.557-21.333-21.333-21.333s-21.333,9.557-21.333,21.333v21.333h-64.062 c-23.488,0-42.603,19.115-42.603,42.603V384h-0.002c-11.776,0-21.333,9.557-21.333,21.333s9.557,21.333,21.333,21.333H256v42.731 C256,492.885,275.115,512,298.603,512h170.795C492.885,512,512,492.885,512,469.397V341.269 C512,317.781,492.885,298.667,469.397,298.667z M298.603,320v21.333h-0.021L298.603,320z M298.667,469.397l-0.011-63.895 c0-0.057,0.009-0.112,0.009-0.169c0-0.057-0.008-0.112-0.009-0.17l-0.011-63.83l170.688-0.064l0.064,128.064L298.667,469.397z"/> <path d="M256,170.731V128c11.775-0.001,21.331-9.558,21.331-21.333S267.775,85.335,256,85.333V42.603 C256,19.115,236.885,0,213.397,0H42.603C19.115,0,0,19.115,0,42.603v128.128c0,23.488,19.115,42.603,42.603,42.603h64.062v21.333 c0,11.776,9.557,21.333,21.333,21.333s21.333-9.557,21.333-21.333v-21.333h64.066C236.885,213.333,256,194.219,256,170.731z M42.603,42.667h-0.021l0.021-21.333V42.667z M42.667,170.731L42.645,42.667l170.688-0.064l0.032,63.395 c-0.007,0.224-0.034,0.443-0.034,0.669c0,0.23,0.027,0.454,0.034,0.682l0.032,63.318L42.667,170.731z"/> </svg>