<!--
Copyright 2020 TATA ELXSI

Licensed under the Apache License, Version 2.0 (the "License");
you may not use this file except in compliance with the License.
You may obtain a copy of the License at

    http://www.apache.org/licenses/LICENSE-2.0

Unless required by applicable law or agreed to in writing, software
distributed under the License is distributed on an "AS IS" BASIS,
WITHOUT WARRANTIES OR CONDITIONS OF ANY KIND, either express or implied.
See the License for the specific language governing permissions and
limitations under the License.

Author: KUMARAN M (kumaran.m@tataelxsi.co.in), RAJESH S (rajesh.s@tataelxsi.co.in), BARATH KUMAR R (barath.r@tataelxsi.co.in)
-->
<!DOCTYPE svg PUBLIC "-//W3C//DTD SVG 1.1//EN" "http://www.w3.org/Graphics/SVG/1.1/DTD/svg11.dtd">

<svg version="1.1" id="IconsRepoEditor" xmlns="http://www.w3.org/2000/svg" xmlns:xlink="http://www.w3.org/1999/xlink" x="0px" y="0px" viewBox="-68.96 -68.96 482.71 482.71" style="enable-background:new 0 0 344.789 344.789;" xml:space="preserve" width="64px" height="64px" fill="#ffffff" stroke="#ffffff" stroke-width="0">

<g id="IconsRepo_bgCarrier">

<rect x="-68.96" y="-68.96" width="482.71" height="482.71" rx="241.355" fill="#e4397c" stroke-width="0"/>

</g> <path d="M259.395,64.283h-40c-4.142,0-7.5,3.357-7.5,7.5v38c0,4.143,3.358,7.5,7.5,7.5h8.5v32.745l-44,20.653V55.303h17.777 c2.82,0,5.402-1.582,6.683-4.095c1.28-2.513,1.043-5.531-0.615-7.813L178.462,3.092C177.051,1.149,174.795,0,172.395,0 c-2.401,0-4.657,1.149-6.068,3.092l-29.277,40.303c-1.658,2.282-1.895,5.301-0.615,7.813c1.281,2.513,3.862,4.095,6.683,4.095 h17.777v138.674l-44-20.653v-38.569c9.435-4.363,16-13.912,16-24.971c0-15.163-12.336-27.5-27.5-27.5 c-15.164,0-27.5,12.337-27.5,27.5c0,11.059,6.565,20.607,16,24.971v45.875c0,4.459,2.577,8.516,6.614,10.41l60.386,28.345v45.032 c-17.032,4.986-29.512,20.738-29.512,39.361c0,22.614,18.398,41.012,41.012,41.012c22.615,0,41.014-18.397,41.014-41.012 c0-18.623-12.48-34.376-29.514-39.361v-68.327l60.386-28.345c4.037-1.895,6.614-5.951,6.614-10.41v-40.051h8.5 c4.142,0,7.5-3.357,7.5-7.5v-38C266.895,67.641,263.537,64.283,259.395,64.283z"/> </svg>