<!--
Copyright 2020 TATA ELXSI

Licensed under the Apache License, Version 2.0 (the "License");
you may not use this file except in compliance with the License.
You may obtain a copy of the License at

    http://www.apache.org/licenses/LICENSE-2.0

Unless required by applicable law or agreed to in writing, software
distributed under the License is distributed on an "AS IS" BASIS,
WITHOUT WARRANTIES OR CONDITIONS OF ANY KIND, either express or implied.
See the License for the specific language governing permissions and
limitations under the License.

Author: KUMARAN M (kumaran.m@tataelxsi.co.in), RAJESH S (rajesh.s@tataelxsi.co.in), BARATH KUMAR R (barath.r@tataelxsi.co.in)
-->
<!DOCTYPE svg PUBLIC "-//W3C//DTD SVG 1.1//EN" "http://www.w3.org/Graphics/SVG/1.1/DTD/svg11.dtd">

<svg version="1.1" id="IconsRepoEditor" xmlns="http://www.w3.org/2000/svg" xmlns:xlink="http://www.w3.org/1999/xlink" x="0px" y="0px" viewBox="-76.05 -76.05 468.99 468.99" style="enable-background:new 0 0 316.89 316.89;" xml:space="preserve" width="64px" height="64px" fill="#FFFFFF" stroke="#FFFFFF" stroke-width="0">

<g id="IconsRepo_bgCarrier">

<rect x="-76.05" y="-76.05" width="468.99" height="468.99" rx="234.495" fill="#605ca8" stroke-width="0"/>

</g> <path d="M182.47,212.195c0-0.754,0.036-1.5,0.057-2.25H38.5c-21.229,0-38.5,17.271-38.5,38.5s17.271,38.5,38.5,38.5h199.493 C205.905,277.24,182.47,247.408,182.47,212.195z M81.5,258.445h-35c-5.514,0-10-4.486-10-10c0-5.514,4.486-10,10-10h35 c5.514,0,10,4.486,10,10C91.5,253.959,87.014,258.445,81.5,258.445z"/> <path d="M38.5,196.945h145.476c7.114-35.78,38.743-62.837,76.581-62.837c9.54,0,18.682,1.727,27.139,4.872 c-6.697-11.378-19.066-19.035-33.196-19.035h-216c-21.229,0-38.5,17.271-38.5,38.5S17.271,196.945,38.5,196.945z M46.5,148.445h35 c5.514,0,10,4.486,10,10c0,5.514-4.486,10-10,10h-35c-5.514,0-10-4.486-10-10C36.5,152.931,40.986,148.445,46.5,148.445z"/> <path d="M38.5,106.945h216c21.228,0,38.5-17.271,38.5-38.5s-17.272-38.5-38.5-38.5h-216c-21.229,0-38.5,17.271-38.5,38.5 S17.271,106.945,38.5,106.945z M237.5,55.695c7.03,0,12.75,5.72,12.75,12.75s-5.72,12.75-12.75,12.75 c-7.03,0-12.75-5.72-12.75-12.75S230.47,55.695,237.5,55.695z M46.5,58.445h35c5.514,0,10,4.486,10,10s-4.486,10-10,10h-35 c-5.514,0-10-4.486-10-10S40.986,58.445,46.5,58.445z"/> <path d="M260.557,155.862c-31.112,0-56.333,25.221-56.333,56.333s25.221,56.333,56.333,56.333s56.332-25.221,56.332-56.333 S291.669,155.862,260.557,155.862z M290.653,200.261l-35.654,35.653c-0.754,0.755-1.759,1.172-2.828,1.172 c-1.069,0-2.074-0.416-2.829-1.172l-17.88-17.88c-0.756-0.755-1.172-1.76-1.172-2.828c0-1.068,0.416-2.073,1.172-2.829l3.535-3.535 c0.754-0.755,1.759-1.172,2.828-1.172c1.068,0,2.073,0.416,2.828,1.171l11.518,11.517l29.291-29.289 c0.754-0.755,1.759-1.172,2.828-1.172c1.069,0,2.074,0.417,2.829,1.172l3.535,3.535c0.755,0.754,1.172,1.759,1.172,2.828 C291.825,198.501,291.409,199.506,290.653,200.261z"/> </svg>